<svg xmlns="http://www.w3.org/2000/svg" width="20" height="20" viewBox="0 0 20 20">
    <g>
        <path fill="none" d="M0 0H20V20H0z" transform="translate(-16 -768) translate(16 768)"/>
        <path fill="#78849e" d="M9.21 9.273l2.758-2.758a.727.727 0 1 0-1.028-1.029l-4 4a.727.727 0 0 0 0 1.029l4 4a.727.727 0 1 0 1.029-1.029L9.21 10.727h8.066a.727.727 0 0 0 0-1.455zm1.517-5.818a.727.727 0 1 0 0-1.455H3.821A1.82 1.82 0 0 0 2 3.821v12.358A1.821 1.821 0 0 0 3.821 18h6.906a.727.727 0 1 0 0-1.455H3.821a.366.366 0 0 1-.367-.366V3.821a.366.366 0 0 1 .367-.366z" transform="translate(-16 -768) translate(15.901 768)"/>
    </g>
</svg>
