<svg xmlns="http://www.w3.org/2000/svg" width="20" height="20" viewBox="0 0 20 20">
    <g>
        <path fill="none" d="M0 0H20V20H0z" transform="translate(-16 -568) translate(16 568)"/>
        <path fill="#78849e" d="M21 5.43v8.216a3.649 3.649 0 0 1-1.381 2.722l-5.092 3.686a2.711 2.711 0 0 1-3.054 0l-5.092-3.686A3.659 3.659 0 0 1 5 13.646V5.43a2.676 2.676 0 0 1 1.775-2.467A13.118 13.118 0 0 1 8.5 2.479a21.375 21.375 0 0 1 9 0 13.094 13.094 0 0 1 1.731.486A2.7 2.7 0 0 1 21 5.43zm-14.316 0v8.216A2.012 2.012 0 0 0 7.369 15l5.091 3.688a1.04 1.04 0 0 0 1.079 0L18.631 15a2 2 0 0 0 .685-1.358V5.43a1.021 1.021 0 0 0-.618-.867l-.052-.018q-.184-.068-.371-.124-.563-.172-1.139-.3a19.692 19.692 0 0 0-8.271 0q-.575.125-1.139.3c-.189.059-.315.1-.371.124l-.063.021a1 1 0 0 0-.607.864zm3.543 4.817l1.51 1.51 4.036-4.037a.842.842 0 1 1 1.191 1.191l-4.632 4.631a.842.842 0 0 1-1.191 0l-2.105-2.105a.842.842 0 1 1 1.191-1.191z" transform="translate(-16 -568) translate(13 567)"/>
    </g>
</svg>
